# xmcd CD database file
#
# Track frame offsets:
#	183
#	31893
#	63395
#	87660
#	116413
#	141210
#	156355
#
# Disc length: 2421 seconds
#
# Revision: 3
# Processed by: cddbd v1.5.2PL0 Copyright (c) Steve Scherf et al.
# Submitted via: CDex 1.70beta2
#
DISCID=5c097307
DTITLE=Abbey Lincoln - Abbey Sings Billie
DYEAR=1992
DGENRE=Jazz
TTITLE0=Gimme A Pigfoot
TTITLE1=No More
TTITLE2=God Bless The Child
TTITLE3=Don't Explain
TTITLE4=For Heaven's Sake
TTITLE5=Please Don;t Talk About me (When I'm Gone)
TTITLE6=For All We Know
EXTD=YEAR: 1992
EXTT0=
EXTT1=
EXTT2=
EXTT3=
EXTT4=
EXTT5=
EXTT6=
PLAYORDER=
